<svg id="Camada_1" data-name="Camada 1" xmlns="http://www.w3.org/2000/svg" viewBox="0 0 285.51 285.51"><defs><style>.cls-1{fill:none;stroke:#6667ab;stroke-miterlimit:10;stroke-width:9px;}</style></defs><path class="cls-1" d="M62.44,43,150,108.52m0,82.79,87.73,65.61M18.28,108.1H150.17M150,191.31H282M150,108.52,237.56,43M150,128.88l99.8-74.74M150,191.31,62.35,256.92M150,171,50.2,245.61M150,150,39.31,232.79M150,150,259.93,66.21M150,171H286.33M13.67,129.05H150M11.74,150H288.26M150,11.74V288.26m0-276.52A138.26,138.26,0,1,1,11.74,150,138.3,138.3,0,0,1,150,11.74Z" transform="translate(-7.24 -7.24)"/></svg>